<svg width="280" height="60" viewBox="0 0 280 60" fill="none" xmlns="http://www.w3.org/2000/svg">
  <defs>
    <linearGradient id="gradient1-compact" x1="0%" y1="0%" x2="100%" y2="100%">
      <stop offset="0%" style="stop-color:#3b82f6;stop-opacity:1" />
      <stop offset="100%" style="stop-color:#1d4ed8;stop-opacity:1" />
    </linearGradient>
    <linearGradient id="gradient2-compact" x1="0%" y1="0%" x2="100%" y2="100%">
      <stop offset="0%" style="stop-color:#10b981;stop-opacity:1" />
      <stop offset="100%" style="stop-color:#059669;stop-opacity:1" />
    </linearGradient>
  </defs>

  <!-- Compact Icon -->
  <g transform="scale(0.7) translate(0, 8)">
    <rect x="8" y="28" width="5" height="16" rx="1" fill="url(#gradient1-compact)"/>
    <line x1="10.5" y1="24" x2="10.5" y2="28" stroke="url(#gradient1-compact)" stroke-width="1.5" stroke-linecap="round"/>
    <line x1="10.5" y1="44" x2="10.5" y2="48" stroke="url(#gradient1-compact)" stroke-width="1.5" stroke-linecap="round"/>

    <rect x="18" y="20" width="5" height="20" rx="1" fill="url(#gradient2-compact)"/>
    <line x1="20.5" y1="14" x2="20.5" y2="20" stroke="url(#gradient2-compact)" stroke-width="1.5" stroke-linecap="round"/>
    <line x1="20.5" y1="40" x2="20.5" y2="46" stroke="url(#gradient2-compact)" stroke-width="1.5" stroke-linecap="round"/>

    <rect x="28" y="24" width="5" height="18" rx="1" fill="url(#gradient1-compact)"/>
    <line x1="30.5" y1="20" x2="30.5" y2="24" stroke="url(#gradient1-compact)" stroke-width="1.5" stroke-linecap="round"/>
    <line x1="30.5" y1="42" x2="30.5" y2="46" stroke="url(#gradient1-compact)" stroke-width="1.5" stroke-linecap="round"/>

    <rect x="38" y="16" width="5" height="24" rx="1" fill="url(#gradient2-compact)"/>
    <line x1="40.5" y1="12" x2="40.5" y2="16" stroke="url(#gradient2-compact)" stroke-width="1.5" stroke-linecap="round"/>
    <line x1="40.5" y1="40" x2="40.5" y2="44" stroke="url(#gradient2-compact)" stroke-width="1.5" stroke-linecap="round"/>

    <path d="M 8 42 Q 20.5 30 30.5 32 T 43 20" stroke="#f59e0b" stroke-width="2" fill="none" stroke-linecap="round" stroke-linejoin="round" opacity="0.8"/>
  </g>

  <!-- Compact Text -->
  <text x="50" y="38" font-family="'Inter', 'Segoe UI', -apple-system, system-ui, sans-serif" font-size="24" font-weight="700" fill="#1e293b" letter-spacing="-0.02em">
    Trading<tspan fill="#3b82f6">System</tspan>
  </text>
</svg>
