<svg width="400" height="80" viewBox="0 0 400 80" fill="none" xmlns="http://www.w3.org/2000/svg">
  <defs>
    <linearGradient id="gradient1-dark" x1="0%" y1="0%" x2="100%" y2="100%">
      <stop offset="0%" style="stop-color:#60a5fa;stop-opacity:1" />
      <stop offset="100%" style="stop-color:#3b82f6;stop-opacity:1" />
    </linearGradient>
    <linearGradient id="gradient2-dark" x1="0%" y1="0%" x2="100%" y2="100%">
      <stop offset="0%" style="stop-color:#34d399;stop-opacity:1" />
      <stop offset="100%" style="stop-color:#10b981;stop-opacity:1" />
    </linearGradient>
  </defs>

  <!-- Logo Icon -->
  <g id="icon-dark">
    <rect x="8" y="48" width="6" height="20" rx="1" fill="url(#gradient1-dark)"/>
    <line x1="11" y1="42" x2="11" y2="48" stroke="url(#gradient1-dark)" stroke-width="2" stroke-linecap="round"/>
    <line x1="11" y1="68" x2="11" y2="72" stroke="url(#gradient1-dark)" stroke-width="2" stroke-linecap="round"/>

    <rect x="20" y="32" width="6" height="28" rx="1" fill="url(#gradient2-dark)"/>
    <line x1="23" y1="24" x2="23" y2="32" stroke="url(#gradient2-dark)" stroke-width="2" stroke-linecap="round"/>
    <line x1="23" y1="60" x2="23" y2="68" stroke="url(#gradient2-dark)" stroke-width="2" stroke-linecap="round"/>

    <rect x="32" y="40" width="6" height="24" rx="1" fill="url(#gradient1-dark)"/>
    <line x1="35" y1="34" x2="35" y2="40" stroke="url(#gradient1-dark)" stroke-width="2" stroke-linecap="round"/>
    <line x1="35" y1="64" x2="35" y2="70" stroke="url(#gradient1-dark)" stroke-width="2" stroke-linecap="round"/>

    <rect x="44" y="28" width="6" height="32" rx="1" fill="url(#gradient2-dark)"/>
    <line x1="47" y1="20" x2="47" y2="28" stroke="url(#gradient2-dark)" stroke-width="2" stroke-linecap="round"/>
    <line x1="47" y1="60" x2="47" y2="68" stroke="url(#gradient2-dark)" stroke-width="2" stroke-linecap="round"/>

    <path d="M 8 64 Q 23 48 35 52 T 50 32" stroke="#fbbf24" stroke-width="2.5" fill="none" stroke-linecap="round" stroke-linejoin="round" opacity="0.9"/>
  </g>

  <!-- Text: TradingSystem (Dark Mode) -->
  <text x="70" y="50" font-family="'Inter', 'Segoe UI', -apple-system, system-ui, sans-serif" font-size="32" font-weight="700" fill="#f1f5f9" letter-spacing="-0.02em">
    Trading<tspan fill="#60a5fa">System</tspan>
  </text>

  <!-- Tagline -->
  <text x="70" y="68" font-family="'Inter', 'Segoe UI', -apple-system, system-ui, sans-serif" font-size="11" font-weight="500" fill="#94a3b8" letter-spacing="0.05em">
    HIGH-FREQUENCY ALGORITHMIC TRADING
  </text>
</svg>
